#N canvas 234 117 813 561 10;
#X obj 21 115 oscparse;
#X obj 21 143 list trim;
#X obj 21 25 loadbang;
#X obj 21 86 netreceive -u -b;
#X msg 21 54 listen 5454;
#X floatatom 50 199 5 0 0 0 - - -;
#X floatatom 115 199 5 0 0 0 - - -;
#X text 91 199 nr;
#X obj 69 270 route 0 1 2 3 4 5 6 7 8 9;
#X obj 65 294 tgl 15 0 empty empty empty 17 7 0 10 -262144 -1 -1 0
1;
#X obj 84 294 tgl 15 0 empty empty empty 17 7 0 10 -262144 -1 -1 0
1;
#X obj 103 294 tgl 15 0 empty empty empty 17 7 0 10 -262144 -1 -1 0
1;
#X obj 122 294 tgl 15 0 empty empty empty 17 7 0 10 -262144 -1 -1 0
1;
#X obj 141 294 tgl 15 0 empty empty empty 17 7 0 10 -262144 -1 -1 0
1;
#X obj 160 295 tgl 15 0 empty empty empty 17 7 0 10 -262144 -1 -1 0
1;
#X obj 179 294 tgl 15 0 empty empty empty 17 7 0 10 -262144 -1 -1 0
1;
#X obj 198 294 tgl 15 0 empty empty empty 17 7 0 10 -262144 -1 -1 0
1;
#X obj 218 294 tgl 15 0 empty empty empty 17 7 0 10 -262144 -1 -1 0
1;
#X obj 237 294 tgl 15 0 empty empty empty 17 7 0 10 -262144 -1 -1 0
1;
#X obj 69 250 pack;
#X obj 22 171 route connection status;
#X obj 58 227 swap;
#X obj 75 381 *~;
#X obj 118 382 *~;
#X obj 165 382 *~;
#X obj 208 383 *~;
#X obj 255 383 *~;
#X obj 307 382 *~;
#X obj 354 382 *~;
#X obj 410 382 *~;
#X obj 457 382 *~;
#X obj 497 383 *~;
#X obj 20 344 osc~ 100;
#X obj 96 343 osc~ 200;
#X obj 165 344 osc~ 300;
#X obj 228 345 osc~ 400;
#X obj 293 347 osc~ 500;
#X obj 354 347 osc~ 600;
#X obj 417 346 osc~ 700;
#X obj 479 346 osc~ 800;
#X obj 543 347 osc~ 900;
#X obj 604 350 osc~ 1000;
#X obj 263 452 *~ 0.3;
#X obj 256 486 dac~;
#X obj 233 466 tgl 15 0 empty empty empty 17 7 0 10 -262144 -1 -1 1
1;
#X text 2 199 status;
#X connect 0 0 1 0;
#X connect 1 0 20 0;
#X connect 2 0 4 0;
#X connect 3 0 0 0;
#X connect 4 0 3 0;
#X connect 5 0 21 0;
#X connect 6 0 21 1;
#X connect 8 0 9 0;
#X connect 8 1 10 0;
#X connect 8 2 11 0;
#X connect 8 3 12 0;
#X connect 8 4 13 0;
#X connect 8 5 14 0;
#X connect 8 6 15 0;
#X connect 8 7 16 0;
#X connect 8 8 17 0;
#X connect 8 9 18 0;
#X connect 9 0 22 1;
#X connect 10 0 23 1;
#X connect 11 0 24 1;
#X connect 12 0 25 1;
#X connect 13 0 26 1;
#X connect 14 0 27 1;
#X connect 15 0 28 1;
#X connect 16 0 29 1;
#X connect 17 0 30 1;
#X connect 18 0 31 1;
#X connect 19 0 8 0;
#X connect 20 0 5 0;
#X connect 20 1 6 0;
#X connect 21 0 19 0;
#X connect 21 1 19 1;
#X connect 22 0 42 0;
#X connect 23 0 42 0;
#X connect 24 0 42 0;
#X connect 25 0 42 0;
#X connect 26 0 42 0;
#X connect 27 0 42 0;
#X connect 28 0 42 0;
#X connect 29 0 42 0;
#X connect 30 0 42 0;
#X connect 31 0 42 0;
#X connect 32 0 22 0;
#X connect 33 0 23 0;
#X connect 34 0 24 0;
#X connect 35 0 25 0;
#X connect 36 0 26 0;
#X connect 37 0 27 0;
#X connect 38 0 28 0;
#X connect 39 0 29 0;
#X connect 40 0 30 0;
#X connect 41 0 31 0;
#X connect 42 0 43 0;
#X connect 42 0 43 1;
#X connect 44 0 43 0;
