#N canvas 307 376 450 300 10;
#X obj 21 115 oscparse;
#X obj 92 142 print RECV;
#X obj 21 143 list trim;
#X text 137 84 <--- replaces [udpreceive];
#X obj 21 25 loadbang;
#X obj 21 85 netreceive -u -b;
#X text 215 171 <--- don't need [routeOSC]!;
#X text 91 116 <--- replaces [unpackOSC];
#X msg 21 54 listen 5454;
#X obj 23 177 route arduino;
#X obj 184 269 print;
#X obj 24 198 list;
#X obj 55 220 list fromsymbol;
#X connect 0 0 2 0;
#X connect 2 0 9 0;
#X connect 4 0 8 0;
#X connect 5 0 0 0;
#X connect 8 0 5 0;
#X connect 9 0 11 0;
#X connect 11 0 12 0;
