#N canvas 509 238 519 401 10;
#X obj 21 115 oscparse;
#X obj 21 143 list trim;
#X text 137 84 <--- replaces [udpreceive];
#X obj 21 25 loadbang;
#X obj 21 85 netreceive -u -b;
#X text 215 171 <--- don't need [routeOSC]!;
#X text 91 116 <--- replaces [unpackOSC];
#X msg 21 54 listen 5454;
#X obj 22 171 route val1 val2;
#X floatatom 21 194 5 0 0 0 - - -;
#X floatatom 66 196 5 0 0 0 - - -;
#X obj 39 240 pack;
#X obj 15 218 change;
#X obj 68 217 change;
#X obj 62 292 print;
#X connect 0 0 1 0;
#X connect 1 0 8 0;
#X connect 3 0 7 0;
#X connect 4 0 0 0;
#X connect 7 0 4 0;
#X connect 8 0 9 0;
#X connect 8 1 10 0;
#X connect 9 0 12 0;
#X connect 10 0 13 0;
#X connect 11 0 14 0;
#X connect 12 0 11 0;
#X connect 13 0 11 1;
